<svg xmlns:xlink="http://www.w3.org/1999/xlink" xmlns="http://www.w3.org/2000/svg" class="header__logo-ico" version="1.1" width="40" height="40" viewBox="0 0 40 40">
<title>JetStyle — главная</title>
<desc>JetStyle — главная</desc>
<path d="M14.2122 22.9848C12.4254 29.6536 10.5883 33.0007 3.05104 33.0007C2.37155 33.0007 1.67949 32.9503 1 32.9252L2.47222 27.4265C2.67355 27.4894 2.88746 27.502 3.12654 27.502C5.51732 27.502 6.02064 25.2497 6.53655 23.3497L9.46841 12.4908H17.0182L14.2122 22.9848ZM28.4437 12.1133C25.386 12.1133 21.7117 12.4656 19.0064 14.0007L16.8043 22.1795C18.4779 23.3245 20.9064 23.8656 22.8945 24.306C23.7879 24.4947 28.3682 25.1868 28.3682 26.4073C28.3682 27.8291 25.4363 28.2192 24.1277 28.2192C23.0078 28.2192 20.9316 27.7914 20.8561 26.3318H15.697L14.489 30.8616C16.4268 32.749 20.315 33.0007 22.8442 33.0007C27.6887 33.0007 36.1571 31.5159 36.1571 25.0484C36.1571 19.3232 23.2091 19.5245 23.2091 17.6371C23.2091 16.3663 26.531 16.2656 27.3238 16.2656C28.7331 16.2656 29.9159 16.3033 30.7715 17.5239H38.3214C38.3717 17.3351 38.3843 17.1338 38.3843 16.9451C38.3843 12.604 31.4133 12.1133 28.4437 12.1133Z" fill="#FFFFFF"></path>
<path d="M26.6107 5H22.8362L22.1619 7.51673H25.9365L26.6107 5ZM19.0617 5H11.5126L10.1641 10.0335H21.4877L22.1619 7.51673H18.3874L19.0617 5Z" fill="#ED1A3B"></path>
</svg>